<?xml version="1.0" standalone="no"?>
<!DOCTYPE svg PUBLIC "-//W3C//DTD SVG 20010904//EN"
 "http://www.w3.org/TR/2001/REC-SVG-20010904/DTD/svg10.dtd">
<svg version="1.0" xmlns="http://www.w3.org/2000/svg"
 width="260.000000pt" height="260.000000pt" viewBox="0 0 260.000000 260.000000"
 preserveAspectRatio="xMidYMid meet">
<metadata>
Created by potrace 1.11, written by Peter Selinger 2001-2013
</metadata>
<g transform="translate(0.000000,260.000000) scale(0.100000,-0.100000)"
fill="#000000" stroke="none">
<path d="M1205 2426 c-103 -33 -190 -100 -243 -188 -38 -64 -65 -179 -56 -240
8 -56 34 -138 43 -138 4 0 35 14 68 30 181 90 403 92 581 5 39 -20 76 -33 82
-30 17 10 40 106 40 166 0 143 -80 278 -210 356 -82 49 -218 67 -305 39z m17
-227 c16 -9 19 -17 14 -45 -4 -18 -2 -43 4 -54 14 -27 -5 -27 -22 0 -19 29
-42 26 -34 -5 4 -14 2 -25 -3 -25 -5 0 -13 21 -16 48 -4 26 -9 55 -11 64 -3
11 2 18 18 21 13 2 24 5 26 6 2 0 12 -4 24 -10z m60 -46 c3 -50 6 -58 23 -58
17 0 20 8 23 58 4 72 22 75 22 4 0 -57 -12 -77 -45 -77 -33 0 -45 20 -45 77 0
71 18 68 22 -4z m163 47 c19 -8 19 -9 -2 -9 -18 -1 -22 -9 -28 -61 -4 -33 -11
-60 -17 -60 -6 0 -7 22 -3 59 6 51 4 60 -12 70 -16 9 -14 10 12 10 17 0 39 -4
50 -9z m-330 -24 c-16 -12 -17 -18 -7 -59 14 -55 15 -67 4 -67 -5 0 -14 25
-21 55 -10 46 -16 55 -34 56 -19 1 -18 2 8 14 17 8 39 14 49 15 19 0 19 0 1
-14z m383 -13 c-3 -24 1 -28 22 -28 18 0 26 6 28 23 2 12 8 22 13 22 11 0 11
-2 -5 -69 -14 -62 -31 -77 -31 -29 0 23 -5 34 -18 36 -9 2 -19 -4 -22 -12 -3
-9 -7 -23 -10 -32 -3 -9 -8 -14 -12 -11 -8 9 18 127 29 127 5 0 7 -12 6 -27z"/>
<path d="M1178 2185 c-3 -3 -3 -15 -1 -26 7 -26 38 -21 38 6 0 19 -25 32 -37
20z"/>
<path d="M1927 2296 c-65 -27 -161 -83 -183 -107 -11 -12 -12 -22 -3 -47 6
-17 9 -71 7 -121 -2 -50 -3 -91 -3 -91 0 0 26 13 57 29 31 16 88 35 127 41
l70 13 10 49 c6 27 11 96 11 153 0 121 2 120 -93 81z"/>
<path d="M605 2248 c-7 -65 7 -195 25 -228 6 -11 27 -19 62 -23 29 -4 83 -21
120 -40 l67 -33 -6 71 c-3 40 -1 94 6 125 11 53 11 54 -16 76 -38 32 -181 103
-220 110 l-31 6 -7 -64z"/>
<path d="M490 1952 c-143 -48 -251 -172 -280 -322 -45 -231 157 -470 396 -470
l53 0 -6 85 c-15 211 67 416 218 548 l51 44 -44 36 c-76 62 -151 90 -248 94
-62 2 -100 -2 -140 -15z m130 -117 c-10 -12 -9 -16 5 -21 10 -4 21 -1 27 7 7
10 8 8 3 -8 -8 -29 14 -41 32 -18 7 11 13 14 13 8 0 -21 -28 -35 -47 -24 -48
28 -55 38 -42 60 7 11 15 18 18 16 2 -3 -2 -11 -9 -20z m-32 -56 c-10 -5 -18
-15 -18 -21 0 -15 31 -37 52 -38 9 0 18 10 21 23 l4 22 2 -23 c1 -28 -22 -38
-55 -23 -41 18 -46 71 -7 71 17 -1 17 -1 1 -11z m-112 -69 c2 0 4 -4 4 -10 0
-5 -15 -10 -32 -10 l-33 0 25 -20 c31 -24 22 -25 -25 -3 -45 22 -44 33 3 33
l37 1 -27 15 c-40 21 -34 27 8 9 20 -8 38 -15 40 -15z m107 -12 c29 -15 37
-23 25 -26 -10 -2 -23 2 -30 8 -7 6 -22 17 -33 25 -30 22 -10 18 38 -7z m-33
-38 c13 -11 28 -20 33 -20 6 0 8 -2 5 -5 -7 -8 -78 26 -78 37 0 14 16 9 40
-12z m-113 -37 c25 -33 -24 -56 -68 -33 -22 12 -24 31 -7 48 16 16 58 7 75
-15z m99 -18 c-7 -20 23 -32 35 -14 5 8 9 10 9 4 0 -30 -16 -35 -58 -18 -23 9
-42 20 -42 26 0 5 7 3 16 -4 15 -12 18 -11 28 4 13 21 20 22 12 2z m-112 -67
c-7 -11 -34 -10 -34 2 0 6 -11 10 -25 10 -14 0 -25 4 -25 9 0 4 20 4 45 -2 24
-6 42 -14 39 -19z m129 -29 c-5 -5 -27 -3 -53 5 -50 16 -43 21 8 7 27 -8 34
-7 39 7 5 11 8 12 11 3 2 -7 0 -17 -5 -22z m-187 12 c-3 -5 6 -12 20 -15 15
-4 24 -9 21 -12 -3 -3 -25 0 -48 7 -37 10 -41 13 -24 20 27 11 37 11 31 0z
m149 -41 c19 -7 26 -16 23 -32 -3 -25 -26 -33 -63 -24 -27 7 -40 33 -24 52 14
17 29 17 64 4z m5 -90 c10 -7 1 -8 -30 -4 -56 8 -64 14 -19 14 19 0 41 -5 49
-10z m10 -61 c0 -6 -77 -29 -97 -29 -19 1 24 20 45 20 35 0 26 18 -13 26 -19
3 -35 10 -35 14 0 5 23 1 50 -8 28 -9 50 -19 50 -23z"/>
<path d="M364 1628 c-8 -13 22 -38 48 -38 24 0 23 27 -1 40 -25 13 -38 13 -47
-2z"/>
<path d="M460 1471 c-18 -13 -5 -27 32 -36 21 -5 29 -3 34 9 4 9 5 19 3 21
-11 10 -56 14 -69 6z"/>
<path d="M1863 1946 c-66 -25 -79 -33 -128 -78 l-31 -28 76 -77 c134 -137 192
-277 192 -468 0 -55 -1 -107 -3 -115 -6 -24 73 -24 150 -1 118 36 195 102 257
221 27 51 29 63 29 165 0 101 -2 115 -29 170 -42 85 -135 175 -211 205 -90 35
-219 38 -302 6z m147 -101 c9 -11 10 -19 3 -26 -8 -8 -11 -6 -10 6 3 26 -16
28 -46 5 -27 -21 -27 -56 -1 -46 8 3 14 1 14 -4 0 -18 -29 -10 -40 10 -9 17
-6 25 14 45 29 29 48 32 66 10z m198 -63 c2 -14 -3 -24 -15 -28 -10 -3 -26
-10 -35 -15 -19 -10 -26 5 -8 16 6 4 8 11 4 16 -4 6 -11 6 -20 -2 -8 -6 -14
-8 -14 -3 0 13 52 43 70 41 8 -1 16 -12 18 -25z m-144 -19 c13 -33 -52 -75
-79 -53 -23 19 -18 39 16 59 34 21 54 19 63 -6z m171 -32 c-12 -11 -85 -42
-85 -36 0 6 73 44 85 45 6 0 6 -3 0 -9z m-145 -29 c0 -5 -7 -17 -15 -28 -20
-27 -18 -37 6 -24 11 6 25 10 31 8 6 -2 -8 -12 -31 -22 -49 -23 -63 -15 -33
17 30 32 27 40 -8 22 -16 -9 -30 -12 -30 -7 0 5 15 16 33 25 37 18 47 20 47 9z
m159 -15 c8 -11 5 -13 -17 -9 -34 5 -62 -22 -43 -41 9 -9 14 -9 20 2 6 8 11 9
15 3 3 -6 -3 -14 -15 -17 -14 -5 -25 -2 -30 6 -15 24 -10 38 19 53 34 19 37
19 51 3z m-111 -91 c9 -43 -67 -66 -88 -26 -9 17 -7 22 12 29 13 4 30 11 38
14 22 8 35 3 38 -17z m128 9 c-25 -19 -14 -45 16 -39 17 4 19 3 8 -4 -8 -5
-31 -13 -50 -16 -28 -5 -31 -5 -17 4 28 18 22 43 -9 37 -36 -6 -16 9 26 21 47
14 48 13 26 -3z m-106 -73 c0 -5 -17 -13 -37 -18 -23 -5 -38 -15 -38 -24 0
-16 15 -17 62 -5 18 4 24 3 18 -3 -19 -18 -73 -22 -85 -7 -19 23 -5 42 37 53
21 5 39 10 41 11 1 1 2 -3 2 -7z m150 -30 c0 -19 -3 -23 -9 -14 -6 11 -17 11
-45 4 -20 -6 -36 -7 -36 -2 0 4 18 10 41 14 31 5 40 10 35 22 -3 8 -2 12 4 9
6 -3 10 -18 10 -33z m-136 -67 c16 -16 12 -45 -6 -45 -7 0 -6 5 1 13 6 8 8 17
4 20 -11 12 -58 8 -72 -5 -11 -11 -13 -10 -9 2 4 12 29 25 60 29 4 1 13 -6 22
-14z m-59 -53 c-3 -3 -11 0 -18 7 -9 10 -8 11 6 5 10 -3 15 -9 12 -12z m74
-54 c-1 -18 -3 -25 -6 -15 -4 14 -13 17 -44 14 -21 -2 -39 0 -39 5 0 4 18 8
40 8 22 0 40 5 40 10 0 6 2 10 5 10 3 0 4 -15 4 -32z"/>
<path d="M2170 1790 c-11 -7 -12 -12 -3 -21 13 -13 33 -4 33 17 0 16 -9 18
-30 4z"/>
<path d="M1995 1750 c-14 -16 -16 -23 -7 -32 9 -9 18 -7 39 8 14 11 27 24 27
29 2 19 -40 16 -59 -5z"/>
<path d="M2088 1597 c-28 -11 -39 -37 -15 -37 32 0 57 14 57 31 0 21 -3 22
-42 6z"/>
<path d="M1292 1886 c-13 -18 -25 -23 -41 -19 -17 4 -21 1 -21 -16 0 -18 -3
-20 -19 -11 -55 29 -72 -21 -23 -69 15 -16 26 -34 24 -40 -2 -7 5 -15 16 -18
11 -3 18 -11 16 -18 -3 -7 3 -16 13 -20 14 -6 10 -10 -21 -19 -52 -15 -55 -31
-11 -47 30 -11 34 -15 21 -25 -13 -9 -13 -15 5 -51 18 -37 19 -53 13 -152 -4
-62 -11 -108 -16 -105 -5 3 -7 -12 -4 -34 3 -26 0 -43 -7 -46 -9 -3 -8 -8 3
-15 13 -9 13 -12 1 -20 -8 -5 -20 -7 -28 -4 -9 4 -13 -4 -13 -25 0 -17 -5 -34
-11 -37 -6 -4 -10 -26 -9 -49 3 -78 6 -75 -62 -78 -71 -3 -63 9 -67 -111 -1
-44 -2 -47 -17 -33 -25 26 -34 19 -34 -29 l0 -45 320 0 320 0 0 45 c0 48 -5
53 -29 31 -14 -13 -16 -10 -18 30 -4 113 -1 108 -69 114 l-60 5 -3 60 c-1 33
-7 68 -12 77 -6 10 -7 23 -4 28 3 5 1 11 -4 14 -5 4 -13 1 -17 -5 -9 -16 -25
11 -18 33 2 9 0 20 -7 23 -8 6 -7 10 2 16 12 8 11 11 -1 19 -10 6 -11 10 -2
10 6 0 12 7 12 16 0 10 -6 14 -15 11 -12 -5 -15 12 -17 106 -3 93 0 119 16
151 16 36 17 41 3 51 -13 10 -10 13 19 24 42 15 40 32 -6 47 -31 10 -32 12
-14 22 16 10 17 13 4 22 -12 8 -11 10 8 10 15 0 22 6 22 20 0 23 32 43 54 34
9 -3 16 -1 16 5 0 7 -7 14 -15 17 -8 4 -15 13 -15 21 0 29 -29 46 -71 40 -32
-4 -39 -2 -39 12 0 17 -29 51 -43 51 -3 0 -14 -11 -25 -24z m125 -142 c-3 -3
-12 -4 -19 -1 -8 3 -5 6 6 6 11 1 17 -2 13 -5z m-40 -702 c3 -15 0 -29 -10
-39 -14 -14 -15 -12 -14 17 1 21 -4 36 -15 44 -28 17 -53 -5 -51 -44 1 -21 -2
-29 -9 -22 -5 5 -8 22 -6 38 6 58 90 63 105 6z m-23 -92 c7 0 21 -7 32 -15 17
-13 15 -13 -16 -1 -19 8 -35 19 -36 25 -2 7 0 7 3 1 2 -5 10 -10 17 -10z m-49
0 c-3 -5 -13 -10 -20 -10 -8 0 -31 -14 -52 -32 -35 -30 -36 -30 -13 -4 14 16
39 35 55 42 37 16 38 16 30 4z m175 -35 c13 -14 21 -25 18 -25 -2 0 -15 11
-28 25 -13 14 -21 25 -18 25 2 0 15 -11 28 -25z m-191 -7 c-2 -2 -17 -14 -34
-28 l-30 -25 24 28 c14 15 29 27 34 27 6 0 8 -1 6 -2z m-129 -11 c0 -2 -12
-14 -27 -28 l-28 -24 24 28 c23 25 31 32 31 24z m241 -14 c13 -16 12 -17 -3
-4 -17 13 -22 21 -14 21 2 0 10 -8 17 -17z m50 -10 c13 -16 12 -17 -3 -4 -17
13 -22 21 -14 21 2 0 10 -8 17 -17z m70 -10 c13 -16 12 -17 -3 -4 -17 13 -22
21 -14 21 2 0 10 -8 17 -17z m-361 -6 c0 -2 -10 -12 -22 -23 l-23 -19 19 23
c18 21 26 27 26 19z m365 -35 c-3 -3 -11 0 -18 7 -9 10 -8 11 6 5 10 -3 15 -9
12 -12z m-98 -24 c-3 -7 -5 -2 -5 12 0 14 2 19 5 13 2 -7 2 -19 0 -25z"/>
<path d="M1621 1784 c-22 -37 -27 -59 -12 -50 17 11 50 75 41 81 -4 3 -17 -11
-29 -31z"/>
<path d="M980 1805 c0 -18 42 -85 51 -80 10 7 -29 85 -43 85 -4 0 -8 -2 -8 -5z"/>
<path d="M1560 1670 c0 -5 5 -10 10 -10 6 0 10 5 10 10 0 6 -4 10 -10 10 -5 0
-10 -4 -10 -10z"/>
<path d="M1060 1659 c0 -5 5 -7 10 -4 6 3 10 8 10 11 0 2 -4 4 -10 4 -5 0 -10
-5 -10 -11z"/>
<path d="M950 1630 c0 -20 137 -156 147 -147 4 4 -28 42 -70 85 -42 42 -77 70
-77 62z"/>
<path d="M1595 1570 c-38 -38 -66 -73 -62 -77 4 -4 42 28 85 70 42 42 70 77
62 77 -9 0 -47 -31 -85 -70z"/>
<path d="M1503 1580 c-13 -21 -19 -41 -14 -44 9 -6 51 56 51 75 0 20 -16 7
-37 -31z"/>
<path d="M1800 1599 c-43 -26 -45 -28 -38 -34 9 -10 78 28 78 42 0 17 1 17
-40 -8z"/>
<path d="M790 1601 c0 -8 64 -51 76 -51 15 0 -1 22 -30 39 -37 23 -46 25 -46
12z"/>
<path d="M1100 1599 c0 -15 33 -69 42 -69 13 0 9 13 -12 48 -20 33 -30 40 -30
21z"/>
<path d="M1690 1530 c0 -5 5 -10 10 -10 6 0 10 5 10 10 0 6 -4 10 -10 10 -5 0
-10 -4 -10 -10z"/>
<path d="M920 1520 c0 -5 5 -10 10 -10 6 0 10 5 10 10 0 6 -4 10 -10 10 -5 0
-10 -4 -10 -10z"/>
<path d="M990 1487 c0 -11 58 -47 75 -47 16 0 -1 18 -35 38 -29 16 -40 19 -40
9z"/>
<path d="M1591 1478 c-19 -12 -29 -24 -23 -26 14 -4 72 26 72 38 0 15 -11 12
-49 -12z"/>
<path d="M1681 1425 c-46 -14 -86 -27 -89 -30 -14 -14 11 -15 59 -1 30 8 73
20 97 26 23 6 42 15 42 20 0 14 -13 12 -109 -15z"/>
<path d="M846 1431 c16 -16 193 -60 199 -50 7 11 4 12 -102 39 -90 22 -112 25
-97 11z"/>
<path d="M730 1310 c0 -5 18 -10 40 -10 22 0 40 5 40 10 0 6 -18 10 -40 10
-22 0 -40 -4 -40 -10z"/>
<path d="M875 1310 c-3 -5 1 -10 10 -10 9 0 13 5 10 10 -3 6 -8 10 -10 10 -2
0 -7 -4 -10 -10z"/>
<path d="M950 1310 c0 -5 20 -10 45 -10 25 0 45 5 45 10 0 6 -20 10 -45 10
-25 0 -45 -4 -45 -10z"/>
<path d="M1590 1310 c0 -5 20 -10 45 -10 25 0 45 5 45 10 0 6 -20 10 -45 10
-25 0 -45 -4 -45 -10z"/>
<path d="M1740 1309 c0 -5 5 -7 10 -4 6 3 10 8 10 11 0 2 -4 4 -10 4 -5 0 -10
-5 -10 -11z"/>
<path d="M1820 1310 c0 -5 18 -10 39 -10 22 0 43 5 46 10 4 6 -12 10 -39 10
-25 0 -46 -4 -46 -10z"/>
<path d="M1582 1240 c2 -7 49 -25 103 -41 108 -31 125 -33 125 -21 0 5 -46 21
-102 37 -57 15 -109 30 -117 33 -8 3 -12 0 -9 -8z"/>
<path d="M927 1211 c-95 -28 -115 -36 -106 -46 8 -7 229 57 229 67 0 12 -16 9
-123 -21z"/>
<path d="M312 1141 c-48 -40 -162 -177 -162 -195 0 -9 126 -46 190 -56 105
-16 119 -14 138 21 39 71 102 148 145 175 53 33 60 48 19 39 -55 -12 -179 18
-263 63 -4 1 -34 -19 -67 -47z"/>
<path d="M2180 1162 c-40 -19 -77 -27 -137 -30 -46 -3 -83 -8 -83 -12 0 -5 16
-18 35 -30 46 -28 109 -101 136 -157 12 -24 28 -47 36 -50 32 -13 293 44 293
64 0 16 -96 137 -141 177 -74 66 -76 67 -139 38z"/>
<path d="M1025 1153 c-22 -15 -35 -28 -29 -30 16 -5 85 37 78 48 -6 11 -1 13
-49 -18z"/>
<path d="M1560 1171 c0 -13 69 -51 75 -41 3 4 -10 18 -29 29 -37 23 -46 25
-46 12z"/>
<path d="M1510 1123 c1 -16 168 -188 176 -180 4 4 -30 46 -77 95 -85 88 -99
100 -99 85z"/>
<path d="M1020 1035 c-45 -47 -80 -88 -76 -92 7 -7 176 156 176 169 0 19 -22
2 -100 -77z"/>
<path d="M1685 1100 c-3 -5 -1 -10 4 -10 6 0 11 5 11 10 0 6 -2 10 -4 10 -3 0
-8 -4 -11 -10z"/>
<path d="M930 1090 c0 -5 5 -10 10 -10 6 0 10 5 10 10 0 6 -4 10 -10 10 -5 0
-10 -4 -10 -10z"/>
<path d="M633 1047 c-54 -40 -107 -114 -134 -186 -17 -45 -20 -73 -17 -146 3
-78 8 -100 35 -156 59 -120 171 -204 306 -231 160 -31 353 72 427 228 17 34
30 67 30 73 0 6 -13 11 -30 11 -59 0 -137 23 -230 67 -80 38 -108 59 -176 127
-63 64 -90 100 -120 163 -21 45 -41 82 -44 82 -3 0 -24 -14 -47 -32z m77 -246
c0 -5 -19 -25 -42 -44 -42 -35 -42 -36 -24 -56 25 -28 8 -27 -21 1 l-24 23 48
42 c49 43 63 50 63 34z m78 -73 c18 -18 15 -52 -8 -81 -28 -35 -57 -43 -81
-21 -27 24 -24 51 10 85 31 31 59 37 79 17z m38 -93 c-24 -58 -19 -62 23 -21
26 25 41 34 46 26 4 -6 5 -12 4 -14 -2 -1 -26 -20 -52 -41 -61 -49 -73 -38
-45 43 13 35 26 58 31 53 5 -5 2 -25 -7 -46z m129 -27 c14 -6 25 -15 25 -20 0
-5 -9 -4 -20 2 -11 6 -25 8 -30 5 -15 -9 -12 -35 5 -41 8 -4 15 -10 15 -15 0
-6 -10 -5 -21 2 -17 9 -23 8 -30 -2 -14 -23 -10 -37 12 -44 11 -4 18 -9 15
-12 -6 -7 -66 17 -66 26 0 9 60 111 65 111 2 0 16 -5 30 -12z"/>
<path d="M722 697 c-26 -28 -28 -55 -5 -64 18 -7 77 51 70 70 -7 22 -42 18
-65 -6z"/>
<path d="M1908 1007 c-74 -142 -177 -244 -313 -308 -69 -32 -164 -59 -212 -59
-43 0 -44 -22 -2 -101 79 -148 254 -238 413 -211 226 37 385 250 347 464 -15
89 -55 162 -123 230 -33 32 -63 58 -66 58 -4 0 -24 -33 -44 -73z m42 -212
c-15 -18 -7 -45 14 -45 7 0 17 7 20 16 4 9 9 14 13 11 3 -4 0 -14 -7 -22 -11
-13 -11 -19 3 -32 15 -15 18 -15 37 2 31 28 34 12 2 -17 l-27 -26 -49 44 -50
44 24 25 c24 26 42 27 20 0z m-35 -65 c4 -6 -5 -10 -19 -10 -36 0 -34 -29 3
-64 34 -32 67 -30 56 4 -4 11 -2 20 4 20 16 0 13 -36 -5 -54 -8 -9 -21 -16
-29 -16 -16 0 -75 66 -75 85 0 31 51 58 65 35z m-35 -122 c31 -26 32 -29 11
-24 -34 7 -60 -9 -54 -34 3 -11 1 -20 -4 -20 -10 0 -53 126 -46 134 8 7 50
-18 93 -56z m-148 4 c-15 -12 -21 -24 -16 -35 7 -20 9 -20 35 -7 11 6 19 7 19
1 0 -5 -7 -11 -15 -15 -19 -7 -19 -35 0 -42 8 -4 21 -1 29 5 7 6 16 8 19 4 4
-3 -7 -15 -24 -25 -17 -11 -32 -18 -34 -16 -1 2 -17 29 -34 60 l-32 57 28 15
c38 21 53 19 25 -2z m-55 -58 c17 -26 16 -27 -11 -49 -24 -19 -27 -25 -17 -44
9 -16 9 -21 -2 -21 -7 0 -22 23 -33 52 -10 29 -20 55 -22 59 -3 7 37 27 55 28
7 1 20 -11 30 -25z"/>
<path d="M1810 632 c0 -22 13 -42 26 -42 20 0 17 14 -6 35 -11 10 -20 13 -20
7z"/>
<path d="M1617 554 c-10 -10 12 -44 28 -44 18 0 27 14 19 34 -6 16 -35 22 -47
10z"/>
<path d="M1756 1061 c-3 -5 10 -18 30 -30 37 -22 54 -26 54 -13 0 12 -78 53
-84 43z"/>
<path d="M822 1038 c-17 -11 -29 -24 -26 -29 6 -10 58 17 76 39 16 19 -12 14
-50 -10z"/>
<path d="M1281 538 c-16 -35 -50 -83 -75 -108 -25 -25 -45 -52 -46 -60 0 -38
128 -259 151 -260 21 0 149 220 149 256 0 9 -20 39 -45 66 -25 26 -59 75 -75
109 l-28 60 -31 -63z"/>
</g>
</svg>
